<?xml version="1.0" encoding="utf-8"?>
<!-- Generator: Adobe Illustrator 25.0.1, SVG Export Plug-In . SVG Version: 6.00 Build 0)  -->
<svg version="1.1" id="圖層_1" xmlns="http://www.w3.org/2000/svg" xmlns:xlink="http://www.w3.org/1999/xlink" x="0px" y="0px"
	 viewBox="0 0 1222.8 865.4" style="enable-background:new 0 0 1222.8 865.4;" xml:space="preserve">
<style type="text/css">
	.st0{fill:#353C1D;}
	.st1{fill:none;}
</style>
<path class="st0" d="M1211.7,633.5l-93.7-30.1c-1.6-0.5-3.2-0.8-4.9-0.8h-635c-13.9,0-21.2-16.5-11.8-26.8l34.2-37.3
	c3-3.3,7.3-5.2,11.7-5.2l326.2-1.8c5,0,9.8-2.4,12.8-6.5l6-8.1c7.8-10.6,0.2-25.6-12.9-25.5L357.1,494
	c-13.8,0.1-21.2-16.3-12.1-26.6l8.6-9.7c3-3.4,7.3-5.4,11.9-5.4l533.5-2.8c5,0,9.8-2.4,12.8-6.5l18.8-25.5
	c7.8-10.6,0.2-25.6-12.9-25.5l-479.7,2.4c-14,0.1-21.3-16.5-11.9-26.8l8.9-9.7c3-3.3,7.3-5.2,11.7-5.2l525.7-2.7
	c5,0,9.8-2.4,12.8-6.5l22.8-30.8c7.8-10.6,0.2-25.6-13-25.5l-471.1,2.6c-13.7,0.1-21.1-15.9-12.3-26.4l8.2-9.7
	c3-3.6,7.4-5.6,12.1-5.6l517.9-2.8c5,0,9.8-2.4,12.8-6.5l35.5-48.1c7.8-10.6,0.2-25.6-13-25.5l-647.9,3.6c-5,0-9.8,2.4-12.8,6.5
	L164.1,527.8c-2.3,3.1-5.7,5.2-9.4,6c-37.2,8-82.3,36-108.9,69.3l0.1,0.1L5.8,636.4C-5.7,646,1,664.7,16,664.7h1190.8
	C1225.1,664.7,1229.1,639.1,1211.7,633.5z"/>
<path class="st1" d="M1167.8,865.4c35.4-77.3,55.1-163.4,55.1-254C1222.8,273.7,949.1,0,611.4,0S0,273.7,0,611.4
	C0,702,19.7,788,55.1,865.4H1167.8z"/>
</svg>
