<svg xmlns="http://www.w3.org/2000/svg" width="20" height="20" viewBox="0 0 20 20">
  <g id="Group_572" data-name="Group 572" transform="translate(0 -0.01)">
    <g id="Profile">
      <path id="Union_1" data-name="Union 1" d="M0,20V17.5c0-2.751,4.5-5,10-5s10,2.25,10,5V20ZM5,5a5,5,0,1,1,5,5A5,5,0,0,1,5,5Z" transform="translate(0 0.01)" fill="#353c1d"/>
    </g>
    <g id="Profile-2" data-name="Profile">
      <path id="Union_1-2" data-name="Union 1" d="M0,20V17.5c0-2.751,4.5-5,10-5s10,2.25,10,5V20ZM5,5a5,5,0,1,1,5,5A5,5,0,0,1,5,5Z" transform="translate(0 0.01)" fill="#353c1d"/>
    </g>
  </g>
</svg>
