<svg xmlns="http://www.w3.org/2000/svg" width="20.87" height="20" viewBox="0 0 20.87 20">
  <path id="chat-square-text-fill" d="M0,2.609A2.609,2.609,0,0,1,2.609,0H18.261A2.609,2.609,0,0,1,20.87,2.609V13.044a2.609,2.609,0,0,1-2.609,2.609H15a1.3,1.3,0,0,0-1.044.522l-2.478,3.3a1.3,1.3,0,0,1-2.087,0l-2.478-3.3a1.3,1.3,0,0,0-1.044-.522H2.609A2.609,2.609,0,0,1,0,13.044Zm4.565,1.3a.652.652,0,0,0,0,1.3H16.3a.652.652,0,1,0,0-1.3Zm0,3.261a.652.652,0,0,0,0,1.3H16.3a.652.652,0,1,0,0-1.3Zm0,3.261a.652.652,0,0,0,0,1.3h6.522a.652.652,0,0,0,0-1.3Z" fill="#353c1d" fill-rule="evenodd"/>
</svg>
