<?xml version="1.0" encoding="utf-8"?>
<!-- Generator: Adobe Illustrator 25.0.1, SVG Export Plug-In . SVG Version: 6.00 Build 0)  -->
<svg version="1.1" id="圖層_1" xmlns="http://www.w3.org/2000/svg" xmlns:xlink="http://www.w3.org/1999/xlink" x="0px" y="0px"
	 viewBox="0 0 16 15.3" style="enable-background:new 0 0 16 15.3;" xml:space="preserve">
<style type="text/css">
	.st0{fill-rule:evenodd;clip-rule:evenodd;fill:#353C1D;}
</style>
<path id="chat-square-text-fill" class="st0" d="M0,2c0-1.1,0.9-2,2-2h12c1.1,0,2,0.9,2,2v8c0,1.1-0.9,2-2,2h-2.5
	c-0.3,0-0.6,0.1-0.8,0.4l-1.9,2.5c-0.3,0.4-1,0.5-1.4,0.2c-0.1-0.1-0.1-0.1-0.2-0.2l-1.9-2.5C5.1,12.1,4.8,12,4.5,12H2
	c-1.1,0-2-0.9-2-2V2z M3.5,3C3.2,3,3,3.2,3,3.5S3.2,4,3.5,4h9C12.8,4,13,3.8,13,3.5S12.8,3,12.5,3H3.5z M3.5,5.5C3.2,5.5,3,5.7,3,6
	s0.2,0.5,0.5,0.5h9C12.8,6.5,13,6.3,13,6s-0.2-0.5-0.5-0.5H3.5z M3.5,8C3.2,8,3,8.2,3,8.5S3.2,9,3.5,9h5C8.8,9,9,8.8,9,8.5
	S8.8,8,8.5,8H3.5z"/>
</svg>
