<?xml version="1.0" encoding="utf-8"?>
<!-- Generator: Adobe Illustrator 25.0.1, SVG Export Plug-In . SVG Version: 6.00 Build 0)  -->
<svg version="1.1" id="Comment" xmlns="http://www.w3.org/2000/svg" xmlns:xlink="http://www.w3.org/1999/xlink" x="0px" y="0px"
	 viewBox="0 0 16 16" style="enable-background:new 0 0 16 16;" xml:space="preserve">
<style type="text/css">
	.st0{fill-rule:evenodd;clip-rule:evenodd;fill:#353C1D;}
</style>
<path id="Chat" class="st0" d="M5,8c0,0.5,0.4,1,0.9,1C5.9,9,6,9,6,9h4c0.6,0,1-0.4,1-1c0-0.5-0.4-1-0.9-1c0,0-0.1,0-0.1,0H6
	C5.4,7,5,7.4,5,8z M0,5c0-2.7,2.2-5,4.9-5C4.9,0,5,0,5,0h6c2.7,0,5,2.2,5,4.9c0,0,0,0.1,0,0.1v10c0,0.5-0.4,1-0.9,1c0,0-0.1,0-0.1,0
	H5c-2.7,0-5-2.2-5-4.9c0,0,0-0.1,0-0.1V5z"/>
</svg>
