<svg id="Group_275" data-name="Group 275" xmlns="http://www.w3.org/2000/svg" width="32.808" height="31.576" viewBox="0 0 32.808 31.576">
  <g id="Group_272" data-name="Group 272" transform="translate(0 0)">
    <g id="Polygon_4" data-name="Polygon 4" transform="translate(10.941 0) rotate(30)" fill="none">
      <path d="M18.937,0l6.312,10.941L18.937,21.883H6.312L0,10.941,6.312,0Z" stroke="none"/>
      <path d="M 6.889900207519531 0.9999980926513672 L 1.15449333190918 10.94137859344482 L 6.889890670776367 20.88275909423828 L 18.35941505432129 20.88275909423828 L 24.09481430053711 10.94137859344482 L 18.35941505432129 0.9999980926513672 L 6.889900207519531 0.9999980926513672 M 6.312332153320313 -1.9073486328125e-06 L 18.93698310852051 -1.9073486328125e-06 L 25.24930191040039 10.94137859344482 L 18.93698310852051 21.88275909423828 L 6.312322616577148 21.88275909423828 L 3.814697265625e-06 10.94137859344482 L 6.312332153320313 -1.9073486328125e-06 Z" stroke="none" fill="#f6f6f7"/>
    </g>
  </g>
  <g id="Instagram" transform="translate(9.541 8.991)">
    <path id="Path_3" data-name="Path 3" d="M6.861,1.22A21.037,21.037,0,0,1,9.605,1.3a3.536,3.536,0,0,1,1.3.229,2.677,2.677,0,0,1,1.3,1.3,3.536,3.536,0,0,1,.229,1.3c0,.686.076.915.076,2.744a21.037,21.037,0,0,1-.076,2.744,3.536,3.536,0,0,1-.229,1.3,2.677,2.677,0,0,1-1.3,1.3,3.536,3.536,0,0,1-1.3.229c-.686,0-.915.076-2.744.076a21.037,21.037,0,0,1-2.744-.076,3.536,3.536,0,0,1-1.3-.229,2.677,2.677,0,0,1-1.3-1.3,3.536,3.536,0,0,1-.229-1.3c0-.686-.076-.915-.076-2.744A21.037,21.037,0,0,1,1.3,4.117a3.536,3.536,0,0,1,.229-1.3,2.738,2.738,0,0,1,.534-.762,1.289,1.289,0,0,1,.762-.534,3.536,3.536,0,0,1,1.3-.229A21.037,21.037,0,0,1,6.861,1.22m0-1.22A22.524,22.524,0,0,0,4.04.076a4.706,4.706,0,0,0-1.677.3,2.984,2.984,0,0,0-1.22.762,2.984,2.984,0,0,0-.762,1.22,3.473,3.473,0,0,0-.3,1.677A22.524,22.524,0,0,0,0,6.861,22.525,22.525,0,0,0,.076,9.681a4.706,4.706,0,0,0,.3,1.677,2.984,2.984,0,0,0,.762,1.22,2.984,2.984,0,0,0,1.22.762,4.706,4.706,0,0,0,1.677.3,22.524,22.524,0,0,0,2.821.076,22.524,22.524,0,0,0,2.821-.076,4.706,4.706,0,0,0,1.677-.3,3.2,3.2,0,0,0,1.982-1.982,4.706,4.706,0,0,0,.3-1.677c0-.762.076-.991.076-2.821a22.524,22.524,0,0,0-.076-2.821,4.706,4.706,0,0,0-.3-1.677,2.984,2.984,0,0,0-.762-1.22,2.984,2.984,0,0,0-1.22-.762,4.706,4.706,0,0,0-1.677-.3A22.524,22.524,0,0,0,6.861,0m0,3.354A3.45,3.45,0,0,0,3.354,6.861,3.507,3.507,0,1,0,6.861,3.354m0,5.794A2.246,2.246,0,0,1,4.574,6.861,2.246,2.246,0,0,1,6.861,4.574,2.246,2.246,0,0,1,9.148,6.861,2.246,2.246,0,0,1,6.861,9.148M10.52,2.363a.839.839,0,1,0,.839.839.846.846,0,0,0-.839-.839" transform="translate(0)" fill="#f6f6f7" fill-rule="evenodd"/>
  </g>
</svg>
