<?xml version="1.0" encoding="utf-8"?>
<!-- Generator: Adobe Illustrator 25.0.1, SVG Export Plug-In . SVG Version: 6.00 Build 0)  -->
<svg version="1.1" id="Price" xmlns="http://www.w3.org/2000/svg" xmlns:xlink="http://www.w3.org/1999/xlink" x="0px" y="0px"
	 viewBox="0 0 16 16" style="enable-background:new 0 0 16 16;" xml:space="preserve">
<style type="text/css">
	.st0{fill:none;}
	.st1{fill:#353C1D;}
</style>
<rect id="Rectangle_554" class="st0" width="16" height="16"/>
<path id="Path_148" class="st1" d="M0.3,10.1C0.1,9.9,0,9.7,0,9.5C0,9.2,0.1,9,0.3,8.8l8.7-8.7C8.9,0.1,9,0,9.1,0c0,0,0,0,0,0h5.9
	c0.2,0,0.5,0.1,0.7,0.3C15.9,0.5,16,0.8,16,1.1v5.9c0,0.1,0,0.1-0.1,0.3l-8.7,8.7C7,15.9,6.8,16,6.5,16c-0.2,0-0.5-0.1-0.7-0.3
	L0.3,10.1z M11.5,2.4c-0.3,0.3-0.5,0.7-0.5,1.1c0,0.4,0.1,0.8,0.4,1.1c0.6,0.5,1.5,0.5,2.1,0c0.3-0.3,0.4-0.7,0.4-1.1
	c0.1-0.4,0-0.8-0.3-1.1C13,1.9,12.1,1.9,11.5,2.4z"/>
</svg>
