<?xml version="1.0" encoding="utf-8"?>
<!-- Generator: Adobe Illustrator 25.0.1, SVG Export Plug-In . SVG Version: 6.00 Build 0)  -->
<svg version="1.1" id="Settings" xmlns="http://www.w3.org/2000/svg" xmlns:xlink="http://www.w3.org/1999/xlink" x="0px" y="0px"
	 viewBox="0 0 16.2 16" style="enable-background:new 0 0 16.2 16;" xml:space="preserve">
<style type="text/css">
	.st0{fill:none;}
	.st1{fill-rule:evenodd;clip-rule:evenodd;fill:#353C1D;}
</style>
<rect id="Rectangle_193" class="st0" width="16" height="16"/>
<path id="Path_104" class="st1" d="M8.5,10c1.1,0,2-0.9,2-2s-0.9-2-2-2s-2,0.9-2,2C6.5,9.1,7.4,10,8.5,10z M4.4,3.6
	C5.1,3,5.9,2.5,6.8,2.3L7.6,0h2l0.8,2.3c0.9,0.3,1.7,0.7,2.4,1.3l2.4-0.5l1,1.8l-1.6,1.8c0.1,0.4,0.1,0.9,0.1,1.3
	c0,0.4-0.1,0.9-0.1,1.3l1.6,1.8l-1,1.8l-2.4-0.5c-0.7,0.6-1.5,1.1-2.4,1.3L9.6,16h-2l-0.8-2.3c-0.9-0.3-1.7-0.7-2.4-1.3L2,12.9
	l-1-1.8l1.6-1.8C2.5,8.9,2.5,8.4,2.5,8c0-0.4,0.1-0.9,0.1-1.3L1,4.9l1-1.8L4.4,3.6z"/>
</svg>
