<?xml version="1.0" encoding="utf-8"?>
<!-- Generator: Adobe Illustrator 25.0.1, SVG Export Plug-In . SVG Version: 6.00 Build 0)  -->
<svg version="1.1" id="Twitter" xmlns="http://www.w3.org/2000/svg" xmlns:xlink="http://www.w3.org/1999/xlink" x="0px" y="0px"
	 viewBox="0 0 16 16" style="enable-background:new 0 0 16 16;" xml:space="preserve">
<style type="text/css">
	.st0{fill:none;}
	.st1{fill-rule:evenodd;clip-rule:evenodd;fill:#353C1D;}
</style>
<rect id="Rectangle_548" class="st0" width="16" height="16"/>
<path id="Path_2" class="st1" d="M5.1,14c5.1,0,9.3-4.1,9.3-9.2c0-0.1,0-0.1,0-0.2V4.2c0.6-0.5,1.2-1,1.6-1.7
	c-0.6,0.3-1.2,0.4-1.9,0.5c0.7-0.4,1.2-1,1.4-1.8c-0.6,0.4-1.3,0.6-2,0.8C12.9,1.4,12,1,11.1,1C9.3,1,7.8,2.5,7.8,4.3
	c0,0.2,0,0.5,0.1,0.7C5.3,4.9,2.8,3.6,1.2,1.5C0.9,2,0.7,2.6,0.7,3.2c0,1.1,0.5,2.1,1.4,2.8C1.6,6,1.1,5.8,0.6,5.5l0,0
	c0,1.6,1.1,2.9,2.7,3.2C3,8.8,2.7,8.8,2.4,8.8c-0.2,0-0.4,0-0.6-0.1C2.2,10.1,3.5,11,4.9,11c-1.2,0.9-2.6,1.4-4.1,1.4
	c-0.3,0-0.5,0-0.8-0.1C1.5,13.4,3.2,14,5.1,14"/>
</svg>
