<svg id="Group_274" data-name="Group 274" xmlns="http://www.w3.org/2000/svg" width="32.808" height="31.576" viewBox="0 0 32.808 31.576">
  <g id="Group_271" data-name="Group 271" transform="translate(0 0)">
    <g id="Polygon_5" data-name="Polygon 5" transform="translate(10.941 0) rotate(30)" fill="none">
      <path d="M18.937,0l6.312,10.941L18.937,21.883H6.312L0,10.941,6.312,0Z" stroke="none"/>
      <path d="M 6.889900207519531 0.9999980926513672 L 1.15449333190918 10.94137859344482 L 6.889890670776367 20.88275909423828 L 18.35941505432129 20.88275909423828 L 24.09481430053711 10.94137859344482 L 18.35941505432129 0.9999980926513672 L 6.889900207519531 0.9999980926513672 M 6.312332153320313 -1.9073486328125e-06 L 18.93698310852051 -1.9073486328125e-06 L 25.24930191040039 10.94137859344482 L 18.93698310852051 21.88275909423828 L 6.312322616577148 21.88275909423828 L 3.814697265625e-06 10.94137859344482 L 6.312332153320313 -1.9073486328125e-06 Z" stroke="none" fill="#f6f6f7"/>
    </g>
  </g>
  <g id="Twitter" transform="translate(9.35 9)">
    <rect id="Rectangle_548" data-name="Rectangle 548" width="14" height="14" transform="translate(0.275 0)" fill="none"/>
    <path id="Path_2" data-name="Path 2" d="M42.345,13.13a7.933,7.933,0,0,0,8-8V4.744A6.2,6.2,0,0,0,51.722,3.3a6.328,6.328,0,0,1-1.6.457,2.966,2.966,0,0,0,1.22-1.525,6.992,6.992,0,0,1-1.753.686A2.722,2.722,0,0,0,47.529,2a2.864,2.864,0,0,0-2.821,2.821,1.486,1.486,0,0,0,.076.61,7.882,7.882,0,0,1-5.794-2.973,2.919,2.919,0,0,0-.381,1.448,3.029,3.029,0,0,0,1.22,2.363,2.57,2.57,0,0,1-1.3-.381h0a2.786,2.786,0,0,0,2.287,2.744,2.35,2.35,0,0,1-.762.076,1.3,1.3,0,0,1-.534-.076,2.888,2.888,0,0,0,2.668,1.982,5.756,5.756,0,0,1-3.507,1.22A2.11,2.11,0,0,1,38,11.758a7.2,7.2,0,0,0,4.345,1.372" transform="translate(-37.723 -1.224)" fill="#f6f6f7" fill-rule="evenodd"/>
  </g>
</svg>
