<svg id="Capa_1" enable-background="new 0 0 510 510" height="512" viewBox="0 0 510 510" width="512" xmlns="http://www.w3.org/2000/svg"><g><g fill="#b3d9ff"><path d="m0 181.969h74.375v30h-74.375z"/><path d="m48.75 9.085h30v90.156h-30z" transform="matrix(.707 -.707 .707 .707 -19.627 60.942)"/><path d="m18.672 326.038h90.156v30h-90.156z" transform="matrix(.707 -.707 .707 .707 -222.478 144.966)"/></g><g fill="#9af"><path d="m435.625 181.969h74.375v30h-74.375z"/><path d="m401.172 39.163h90.156v30h-90.156z" transform="matrix(.707 -.707 .707 .707 92.405 331.41)"/><path d="m431.25 295.96h30v90.156h-30z" transform="matrix(.707 -.707 .707 .707 -110.447 415.434)"/></g><path d="m307.48 443.428-52.48 4.61-10.089-111.608 10.089-98.922 24.33 1.79z" fill="#ff9000"/><path d="m255 237.508v210.53l-53.77 4.73 29.93-217.01z" fill="#fb3"/><path d="m330 350.438v30h-75l-7.37-13.928 7.37-16.072z" fill="#fb3"/><path d="m180.77 350.438h74.23v30h-74.23z" fill="#ffd944"/><path d="m328.92 202.098 8.93 90.02-82.85-36.31-14.74-91.19 14.74-127.5 45.69 78.08 88.37 19.32z" fill="#fb3"/><path d="m255 37.118v218.69l-82.85 36.31 8.93-90.02-60.14-67.58 88.37-19.32z" fill="#ffd944"/><path d="m381 465.818v32.5h-126l-14.74-32.5 14.74-32.5h50.12c28.46 0 55.76 11.69 75.88 32.5z" fill="#724435"/><path d="m255 433.318v65h-124v-32.5c10.06-10.4 21.92-18.53 34.81-24.05 12.9-5.53 26.84-8.45 41.07-8.45z" fill="#9a5e34"/></g></svg>