<?xml version="1.0" encoding="utf-8"?>
<!-- Generator: Adobe Illustrator 24.3.0, SVG Export Plug-In . SVG Version: 6.00 Build 0)  -->
<svg version="1.1" id="圖層_1" xmlns="http://www.w3.org/2000/svg" xmlns:xlink="http://www.w3.org/1999/xlink" x="0px" y="0px"
	 viewBox="0 0 1417.3 1417.3" style="enable-background:new 0 0 1417.3 1417.3;" xml:space="preserve">
<style type="text/css">
	.st0{fill:#FFFFFF;}
</style>
<path class="st0" d="M-178.1-316.7l-73.5-23.6c-1.2-0.4-2.5-0.6-3.8-0.6h-498.3c-10.9,0-16.6-13-9.3-21l26.8-29.3
	c2.4-2.6,5.7-4,9.2-4.1l256-1.4c4,0,7.7-1.9,10-5.1l4.7-6.4c6.1-8.3,0.2-20.1-10.2-20l-382.2,2c-10.9,0.1-16.7-12.8-9.5-20.9
	l6.7-7.6c2.4-2.7,5.8-4.2,9.3-4.2l418.6-2.2c4,0,7.7-1.9,10-5.1l14.8-20c6.1-8.3,0.2-20.1-10.2-20l-376.4,1.9
	c-11,0.1-16.7-13-9.3-21l7-7.6c2.4-2.6,5.7-4,9.2-4.1l412.5-2.1c4,0,7.7-1.9,10-5.1l17.9-24.2c6.1-8.3,0.2-20.1-10.2-20l-369.7,2
	c-10.7,0.1-16.6-12.5-9.6-20.7l6.5-7.6c2.4-2.8,5.8-4.4,9.5-4.4l406.3-2.2c4,0,7.7-1.9,10-5.1l27.8-37.7c6.1-8.3,0.2-20.1-10.2-20
	l-508.4,2.8c-4,0-7.7,1.9-10,5.1l-204.1,276.5c-1.8,2.4-4.4,4.1-7.4,4.7c-29.2,6.3-64.6,28.3-85.4,54.4l0,0l-31.4,26
	c-9.1,7.5-3.8,22.2,8,22.2h934.3C-167.6-292.2-164.5-312.4-178.1-316.7z"/>
<g>
	<polygon class="st0" points="-1231.2,-368.7 -1220.3,-346.6 -1195.8,-343 -1213.5,-325.8 -1209.3,-301.4 -1231.2,-312.9 
		-1253.1,-301.4 -1248.9,-325.8 -1266.6,-343 -1242.1,-346.6 	"/>
	<polygon class="st0" points="-1185.5,-595.3 -1174.5,-573.1 -1150.1,-569.6 -1167.8,-552.4 -1163.6,-528 -1185.5,-539.5 
		-1207.3,-528 -1203.1,-552.4 -1220.8,-569.6 -1196.4,-573.1 	"/>
	<polygon class="st0" points="-1060.7,-780.3 -1049.8,-758.2 -1025.3,-754.6 -1043,-737.4 -1038.9,-713 -1060.7,-724.5 
		-1082.6,-713 -1078.4,-737.4 -1096.1,-754.6 -1071.6,-758.2 	"/>
	<polygon class="st0" points="-875.7,-905.1 -864.8,-882.9 -840.3,-879.4 -858,-862.1 -853.8,-837.8 -875.7,-849.3 -897.5,-837.8 
		-893.4,-862.1 -911,-879.4 -886.6,-882.9 	"/>
	<polygon class="st0" points="-649.1,-950.8 -638.2,-928.7 -613.8,-925.1 -631.4,-907.9 -627.3,-883.5 -649.1,-895 -671,-883.5 
		-666.8,-907.9 -684.5,-925.1 -660,-928.7 	"/>
	<polygon class="st0" points="-422.5,-905.1 -411.6,-882.9 -387.2,-879.4 -404.8,-862.1 -400.7,-837.8 -422.5,-849.3 -444.4,-837.8 
		-440.2,-862.1 -457.9,-879.4 -433.5,-882.9 	"/>
	<polygon class="st0" points="-237.5,-780.3 -226.6,-758.2 -202.2,-754.6 -219.8,-737.4 -215.7,-713 -237.5,-724.5 -259.4,-713 
		-255.2,-737.4 -272.9,-754.6 -248.4,-758.2 	"/>
	<polygon class="st0" points="-112.8,-595.3 -101.8,-573.1 -77.4,-569.6 -95.1,-552.4 -90.9,-528 -112.8,-539.5 -134.6,-528 
		-130.4,-552.4 -148.1,-569.6 -123.7,-573.1 	"/>
	<polygon class="st0" points="-67,-368.7 -56.1,-346.6 -31.7,-343 -49.3,-325.8 -45.2,-301.4 -67,-312.9 -88.9,-301.4 -84.7,-325.8 
		-102.4,-343 -77.9,-346.6 	"/>
</g>
<g>
	<path class="st0" d="M-1005.7-75.6c-19,0-32.7-4.2-41.2-12.5s-12.8-21.8-12.8-40.4v-48.7c0-19.2,4.7-33.1,14.1-41.9
		c9.4-8.8,22.7-13.2,39.9-13.2h77.7c12.2,0,21.6,0.7,28.1,2c6.5,1.3,9.7,2.7,9.7,4.1l-8.2,33.2c-4.4-0.5-13.1-1.1-25.9-1.7
		c-12.9-0.6-29-0.9-48.5-0.9h-13.6c-8.3,0-14,1.5-16.9,4.7c-2.9,3.1-4.4,7.8-4.4,14.2v45.5c0,6,1.3,10.7,3.9,14
		c2.6,3.3,8.4,4.9,17.4,4.9h10.9c25.4,0,44.7-0.3,58-0.9s21.3-1.3,23.9-2l16.2,28.7c0,0.9-1.8,2.2-5.5,4c-3.6,1.8-9.8,3.4-18.3,4.8
		c-8.6,1.4-20.5,2.1-35.8,2.1L-1005.7-75.6L-1005.7-75.6z"/>
	<path class="st0" d="M-799.6-75.6c-18.8,0-32.5-4.2-41.1-12.6c-8.6-8.4-12.9-21.8-12.9-40.3v-50.8c0-18.1,4.3-31.4,12.8-39.9
		s22.2-12.8,41.2-12.8h77.7c18.6,0,32.2,4.3,40.8,12.8c8.6,8.5,12.9,21.8,12.9,39.9v50.8c0,18.5-4.3,31.9-13,40.3
		c-8.7,8.4-22.3,12.6-40.7,12.6H-799.6z M-781.2-111.8h41.2c13.8,0,20.8-6.3,20.8-18.9v-46.5c0-12.4-6.9-18.6-20.8-18.6h-41.2
		c-7.1,0-12.4,1.4-16,4.3c-3.5,2.8-5.3,7.6-5.3,14.4v46.5c0,6.6,1.8,11.3,5.3,14.4C-793.6-113.3-788.3-111.8-781.2-111.8z"/>
	<path class="st0" d="M-576.9-75.6c-18.8,0-32.5-4.2-41.1-12.6s-12.9-21.8-12.9-40.3v-50.8c0-18.1,4.3-31.4,12.8-39.9
		s22.2-12.8,41.2-12.8h77.7c18.6,0,32.2,4.3,40.8,12.8c8.6,8.5,12.9,21.8,12.9,39.9v50.8c0,18.5-4.3,31.9-13,40.3
		c-8.7,8.4-22.3,12.6-40.7,12.6H-576.9z M-558.6-111.8h41.2c13.8,0,20.8-6.3,20.8-18.9v-46.5c0-12.4-6.9-18.6-20.8-18.6h-41.2
		c-7.1,0-12.4,1.4-16,4.3c-3.5,2.8-5.3,7.6-5.3,14.4v46.5c0,6.6,1.8,11.3,5.3,14.4C-571-113.3-565.7-111.8-558.6-111.8z"/>
	<path class="st0" d="M-405.6-75.6l2.7-21.3V-232h51.1v120h94.2l16,33.5c0,0.7-2.4,1.4-7.2,2s-13,0.9-24.7,0.9L-405.6-75.6
		L-405.6-75.6z"/>
</g>
<path class="st0" d="M-1190.9-8.2c29.8,56.8,68.3,108.4,113.7,153H-221c45.4-44.5,83.9-96.1,113.7-153L-1190.9-8.2L-1190.9-8.2z"/>
<path class="st0" d="M-1016.3,197.1c102.2,76.9,229.4,122.5,367.2,122.5s265-45.6,367.2-122.5H-1016.3z"/>
</svg>
