<svg id="圖層_1" data-name="圖層 1" xmlns="http://www.w3.org/2000/svg" viewBox="0 0 1234.91 1270.46"><defs><style>.cls-1{fill:#fff;}</style></defs><path class="cls-1" d="M-178.1-316.73l-73.53-23.58a12.46,12.46,0,0,0-3.83-.6H-753.72a12.55,12.55,0,0,1-9.26-21l26.83-29.3a12.54,12.54,0,0,1,9.19-4.07l256-1.43a12.54,12.54,0,0,0,10-5.1l4.7-6.36a12.55,12.55,0,0,0-10.16-20l-382.24,2a12.55,12.55,0,0,1-9.46-20.88l6.73-7.59a12.56,12.56,0,0,1,9.32-4.22l418.58-2.19a12.54,12.54,0,0,0,10-5.1l14.78-20a12.55,12.55,0,0,0-10.16-20l-376.39,1.91a12.55,12.55,0,0,1-9.32-21l6.95-7.59a12.54,12.54,0,0,1,9.19-4.07l412.5-2.09a12.54,12.54,0,0,0,10-5.1L-338-568.37a12.55,12.55,0,0,0-10.17-20l-369.67,2A12.55,12.55,0,0,1-727.49-607l6.45-7.59a12.56,12.56,0,0,1,9.5-4.43l406.32-2.22a12.54,12.54,0,0,0,10-5.1l27.84-37.71a12.56,12.56,0,0,0-10.17-20l-508.39,2.84a12.54,12.54,0,0,0-10,5.1l-204.12,276.5a12.44,12.44,0,0,1-7.4,4.72c-29.2,6.3-64.57,28.27-85.43,54.41l0,0-31.43,26.05c-9,7.5-3.75,22.22,8,22.22h934.34C-167.62-292.22-164.47-312.35-178.1-316.73Z" transform="translate(1266.57 950.79)"/><polygon class="cls-1" points="35.37 582.09 46.29 604.23 70.73 607.78 53.05 625.02 57.22 649.36 35.37 637.87 13.51 649.36 17.68 625.02 0 607.78 24.44 604.23 35.37 582.09"/><polygon class="cls-1" points="81.11 355.51 92.04 377.66 116.47 381.21 98.79 398.44 102.97 422.78 81.11 411.29 59.25 422.78 63.43 398.44 45.75 381.21 70.18 377.66 81.11 355.51"/><polygon class="cls-1" points="205.86 170.49 216.78 192.63 241.22 196.18 223.54 213.42 227.71 237.75 205.86 226.26 184 237.75 188.18 213.42 170.49 196.18 194.93 192.63 205.86 170.49"/><polygon class="cls-1" points="390.88 45.74 401.81 67.88 426.24 71.44 408.56 88.67 412.74 113.01 390.88 101.52 369.03 113.01 373.2 88.67 355.52 71.44 379.95 67.88 390.88 45.74"/><polygon class="cls-1" points="617.46 0 628.39 22.14 652.82 25.69 635.14 42.93 639.31 67.26 617.46 55.77 595.6 67.26 599.78 42.93 582.09 25.69 606.53 22.14 617.46 0"/><polygon class="cls-1" points="844.03 45.74 854.96 67.88 879.4 71.44 861.72 88.67 865.89 113.01 844.03 101.52 822.18 113.01 826.35 88.67 808.67 71.44 833.11 67.88 844.03 45.74"/><polygon class="cls-1" points="1029.06 170.49 1039.99 192.63 1064.42 196.18 1046.74 213.42 1050.91 237.75 1029.06 226.26 1007.2 237.75 1011.38 213.42 993.7 196.18 1018.13 192.63 1029.06 170.49"/><polygon class="cls-1" points="1153.81 355.51 1164.73 377.66 1189.17 381.21 1171.49 398.44 1175.66 422.78 1153.81 411.29 1131.95 422.78 1136.12 398.44 1118.44 381.21 1142.88 377.66 1153.81 355.51"/><polygon class="cls-1" points="1199.55 582.09 1210.48 604.23 1234.91 607.78 1217.23 625.02 1221.41 649.36 1199.55 637.87 1177.69 649.36 1181.87 625.02 1164.19 607.78 1188.62 604.23 1199.55 582.09"/><path class="cls-1" d="M-1005.72-75.63q-28.47,0-41.23-12.5t-12.77-40.43v-48.68q0-28.72,14.1-41.89t39.9-13.17H-928q18.36,0,28.06,2t9.71,4.12l-8.25,33.25q-6.65-.8-25.94-1.73t-48.54-.93h-13.57q-12.51,0-16.89,4.66t-4.39,14.23v45.49q0,9,3.86,14t17.42,4.92h10.91q38,0,58-.93t23.94-2l16.23,28.73q0,1.34-5.45,4t-18.35,4.79q-12.9,2.13-35.78,2.13h-68.63Z" transform="translate(1266.57 950.79)"/><path class="cls-1" d="M-799.57-75.63q-28.2,0-41.1-12.63t-12.9-40.3v-50.81q0-27.13,12.77-39.9T-799.57-232h77.67q27.93,0,40.83,12.77t12.9,39.9v50.81q0,27.68-13,40.3t-40.7,12.63Zm18.35-36.18H-740q20.75,0,20.75-18.89v-46.55q0-18.62-20.75-18.62h-41.23q-10.63,0-16,4.26t-5.32,14.36v46.55q0,9.84,5.32,14.36T-781.22-111.81Z" transform="translate(1266.57 950.79)"/><path class="cls-1" d="M-576.94-75.63q-28.2,0-41.1-12.63t-12.9-40.3v-50.81q0-27.13,12.77-39.9T-576.94-232h77.67q27.93,0,40.83,12.77t12.9,39.9v50.81q0,27.68-13,40.3t-40.7,12.63Zm18.36-36.18h41.23q20.75,0,20.75-18.89v-46.55q0-18.62-20.75-18.62h-41.23q-10.63,0-16,4.26t-5.32,14.36v46.55q0,9.84,5.32,14.36T-558.58-111.81Z" transform="translate(1266.57 950.79)"/><path class="cls-1" d="M-405.63-75.63-403-96.91V-232h51.07v120h94.16l16,33.52q0,1.06-7.18,2t-24.74.93H-405.63Z" transform="translate(1266.57 950.79)"/><path class="cls-1" d="M-1190.92-8.15a613.33,613.33,0,0,0,113.73,153H-221A613.39,613.39,0,0,0-107.3-8.15Z" transform="translate(1266.57 950.79)"/><path class="cls-1" d="M-1016.34,197.14A608.69,608.69,0,0,0-649.11,319.67,608.71,608.71,0,0,0-281.88,197.14Z" transform="translate(1266.57 950.79)"/></svg>