<?xml version="1.0" encoding="utf-8"?>
<!-- Generator: Adobe Illustrator 24.3.0, SVG Export Plug-In . SVG Version: 6.00 Build 0)  -->
<svg version="1.1" id="圖層_1" xmlns="http://www.w3.org/2000/svg" xmlns:xlink="http://www.w3.org/1999/xlink" x="0px" y="0px"
	 viewBox="0 0 1417.32 1417.32" style="enable-background:new 0 0 1417.32 1417.32;" xml:space="preserve">
<style type="text/css">
	.st0{fill:#040000;}
	.st1{fill:none;}
</style>
<path class="st0" d="M1175.63,687.04l-73.53-23.58c-1.24-0.4-2.53-0.6-3.83-0.6H600.01c-10.92,0-16.63-12.98-9.26-21.03l26.83-29.3
	c2.36-2.58,5.69-4.05,9.19-4.07l255.97-1.43c3.96-0.02,7.68-1.91,10.03-5.1l4.7-6.36c6.14-8.31,0.17-20.06-10.16-20.01l-382.24,2
	c-10.86,0.06-16.66-12.76-9.46-20.88l6.73-7.59c2.37-2.67,5.76-4.2,9.32-4.22l418.58-2.19c3.96-0.02,7.68-1.91,10.03-5.1
	l14.78-20.01c6.14-8.31,0.17-20.06-10.16-20.01l-376.39,1.91c-10.95,0.06-16.72-12.96-9.32-21.03l6.95-7.59
	c2.36-2.58,5.69-4.05,9.19-4.07l412.5-2.09c3.96-0.02,7.68-1.91,10.03-5.1l17.86-24.19c6.14-8.31,0.17-20.06-10.17-20.01
	l-369.67,2.02c-10.73,0.06-16.58-12.5-9.63-20.68l6.45-7.59c2.37-2.79,5.84-4.41,9.5-4.43l406.32-2.22
	c3.96-0.02,7.68-1.91,10.03-5.1l27.84-37.71c6.14-8.31,0.16-20.06-10.17-20.01l-508.39,2.84c-3.96,0.02-7.68,1.91-10.03,5.1
	L353.67,604.11c-1.8,2.43-4.44,4.08-7.4,4.72c-29.2,6.3-64.57,28.27-85.43,54.41l0.04,0.04l-31.43,26.05
	c-9.05,7.5-3.75,22.22,8.01,22.22h934.34C1186.11,711.55,1189.26,691.42,1175.63,687.04z"/>
<g>
	<polygon class="st0" points="122.53,635.07 133.45,657.21 157.89,660.76 140.21,678 144.38,702.34 122.53,690.85 100.67,702.34 
		104.84,678 87.16,660.76 111.6,657.21 	"/>
	<polygon class="st0" points="168.27,408.49 179.2,430.64 203.63,434.19 185.95,451.42 190.13,475.76 168.27,464.27 146.41,475.76 
		150.59,451.42 132.91,434.19 157.34,430.64 	"/>
	<polygon class="st0" points="293.02,223.47 303.94,245.61 328.38,249.16 310.7,266.4 314.87,290.73 293.02,279.24 271.16,290.73 
		275.34,266.4 257.65,249.16 282.09,245.61 	"/>
	<polygon class="st0" points="478.04,98.72 488.97,120.86 513.4,124.42 495.72,141.65 499.9,165.99 478.04,154.5 456.19,165.99 
		460.36,141.65 442.68,124.42 467.11,120.86 	"/>
	<polygon class="st0" points="704.62,52.98 715.55,75.12 739.98,78.67 722.3,95.91 726.47,120.24 704.62,108.75 682.76,120.24 
		686.94,95.91 669.25,78.67 693.69,75.12 	"/>
	<polygon class="st0" points="931.19,98.72 942.12,120.86 966.56,124.42 948.88,141.65 953.05,165.99 931.19,154.5 909.34,165.99 
		913.51,141.65 895.83,124.42 920.27,120.86 	"/>
	<polygon class="st0" points="1116.22,223.47 1127.15,245.61 1151.58,249.16 1133.9,266.4 1138.07,290.73 1116.22,279.24 
		1094.36,290.73 1098.54,266.4 1080.86,249.16 1105.29,245.61 	"/>
	<polygon class="st0" points="1240.97,408.49 1251.89,430.64 1276.33,434.19 1258.65,451.42 1262.82,475.76 1240.97,464.27 
		1219.11,475.76 1223.28,451.42 1205.6,434.19 1230.04,430.64 	"/>
	<polygon class="st0" points="1286.71,635.07 1297.64,657.21 1322.07,660.76 1304.39,678 1308.57,702.34 1286.71,690.85 
		1264.85,702.34 1269.03,678 1251.35,660.76 1275.78,657.21 	"/>
</g>
<g>
	<path d="M348.01,928.14c-18.98,0-32.72-4.17-41.23-12.5c-8.51-8.33-12.77-21.81-12.77-40.43v-48.68c0-19.15,4.7-33.12,14.1-41.89
		c9.4-8.78,22.7-13.17,39.9-13.17h77.67c12.24,0,21.59,0.67,28.06,2c6.47,1.33,9.71,2.71,9.71,4.12l-8.25,33.25
		c-4.43-0.53-13.08-1.11-25.94-1.73c-12.86-0.62-29.04-0.93-48.54-0.93h-13.57c-8.34,0-13.96,1.55-16.89,4.66
		c-2.93,3.1-4.39,7.85-4.39,14.23v45.49c0,6.03,1.28,10.69,3.86,13.96c2.57,3.28,8.38,4.92,17.42,4.92h10.91
		c25.36,0,44.69-0.31,57.99-0.93c13.3-0.62,21.28-1.28,23.94-2l16.23,28.73c0,0.89-1.82,2.22-5.45,3.99
		c-3.64,1.77-9.75,3.37-18.35,4.79c-8.6,1.42-20.53,2.13-35.78,2.13H348.01z"/>
	<path d="M554.16,928.14c-18.8,0-32.5-4.21-41.1-12.63c-8.6-8.42-12.9-21.85-12.9-40.3V824.4c0-18.09,4.26-31.39,12.77-39.9
		c8.51-8.51,22.25-12.77,41.23-12.77h77.67c18.62,0,32.23,4.26,40.83,12.77c8.6,8.51,12.9,21.81,12.9,39.9v50.81
		c0,18.45-4.35,31.88-13.03,40.3c-8.69,8.42-22.26,12.63-40.7,12.63H554.16z M572.51,891.96h41.23c13.83,0,20.75-6.29,20.75-18.89
		v-46.55c0-12.41-6.92-18.62-20.75-18.62h-41.23c-7.09,0-12.42,1.42-15.96,4.26c-3.55,2.84-5.32,7.63-5.32,14.36v46.55
		c0,6.56,1.77,11.35,5.32,14.36C560.1,890.46,565.42,891.96,572.51,891.96z"/>
	<path d="M776.79,928.14c-18.8,0-32.5-4.21-41.1-12.63c-8.6-8.42-12.9-21.85-12.9-40.3V824.4c0-18.09,4.26-31.39,12.77-39.9
		c8.51-8.51,22.25-12.77,41.23-12.77h77.67c18.62,0,32.23,4.26,40.83,12.77c8.6,8.51,12.9,21.81,12.9,39.9v50.81
		c0,18.45-4.35,31.88-13.03,40.3c-8.69,8.42-22.26,12.63-40.7,12.63H776.79z M795.15,891.96h41.23c13.83,0,20.75-6.29,20.75-18.89
		v-46.55c0-12.41-6.92-18.62-20.75-18.62h-41.23c-7.09,0-12.41,1.42-15.96,4.26c-3.55,2.84-5.32,7.63-5.32,14.36v46.55
		c0,6.56,1.77,11.35,5.32,14.36C782.73,890.46,788.05,891.96,795.15,891.96z"/>
	<path d="M948.1,928.14l2.66-21.28V771.73h51.07V891.7h94.16l15.96,33.52c0,0.71-2.39,1.38-7.18,2c-4.79,0.62-13.03,0.93-24.74,0.93
		H948.1z"/>
</g>
<path class="st1" d="M1260.95,966c35.37-77.35,55.09-163.36,55.09-253.97c0-337.68-273.74-611.42-611.42-611.42
	S93.2,374.35,93.2,712.03c0,90.61,19.72,176.62,55.09,253.97H1260.95z"/>
<path class="st0" d="M162.81,995.62c29.81,56.84,68.31,108.42,113.73,152.96h856.16c45.42-44.54,83.91-96.11,113.73-152.96H162.81z"
	/>
<path class="st0" d="M337.39,1200.91c102.25,76.93,229.41,122.53,367.23,122.53s264.97-45.6,367.23-122.53H337.39z"/>
</svg>
