<?xml version="1.0" encoding="utf-8"?>
<!-- Generator: Adobe Illustrator 25.0.1, SVG Export Plug-In . SVG Version: 6.00 Build 0)  -->
<svg version="1.1" id="Attachment" xmlns="http://www.w3.org/2000/svg" xmlns:xlink="http://www.w3.org/1999/xlink" x="0px" y="0px"
	 viewBox="0 0 16 16" style="enable-background:new 0 0 16 16;" xml:space="preserve">
<style type="text/css">
	.st0{fill:none;}
	.st1{fill:#353C1D;}
</style>
<rect id="Rectangle_314" class="st0" width="16" height="16"/>
<path id="Path_125" class="st1" d="M5.6,16c-1.4,0-2.8-0.6-3.7-1.6c-1.2-1-1.9-2.5-1.9-4c0-0.7,0.1-1.4,0.4-2
	c0.2-0.6,0.5-1.1,0.9-1.6L4,4.1c0.6-0.6,1.5-1,2.4-0.9c1,0,1.9,0.4,2.5,1.1C9.7,5,10.1,5.9,10,6.9c0,0.9-0.3,1.8-0.9,2.4l-1.5,1.3
	c-0.2,0.2-0.4,0.3-0.7,0.3c-0.3,0-0.6-0.1-0.8-0.3C6,10.4,5.9,10.2,5.9,9.9c0-0.3,0.1-0.6,0.3-0.8l1.5-1.5C7.9,7.4,8,7.1,8,6.8
	c0-0.5-0.2-0.9-0.5-1.2C7.2,5.4,6.9,5.3,6.5,5.3c-0.3,0-0.7,0.1-0.9,0.3L2.8,8.3c-0.4,0.6-0.7,1.4-0.7,2.1c0,0.9,0.4,1.8,1.1,2.5
	c0.4,0.4,0.8,0.7,1.3,0.8C5,13.9,5.4,14,5.9,13.9c0.4-0.1,0.8-0.1,1.1-0.3c0.3-0.1,0.6-0.3,0.8-0.5l5.3-5.3c0.6-0.6,1-1.4,0.9-2.3
	c0-1-0.5-1.9-1.2-2.5c-0.5-0.3-1-0.6-1.6-0.8H10C9.7,2.2,9.4,2.3,9.1,2.5C8.8,2.6,8.5,2.7,8.3,2.7C8,2.6,7.7,2.4,7.6,2.1
	C7.5,2,7.5,1.7,7.5,1.3C7.6,1.1,7.8,0.9,8,0.7C8.8,0.2,9.7,0,10.7,0c1.3,0,2.5,0.5,3.5,1.3c1.1,1,1.8,2.5,1.9,4
	c0.1,1.4-0.5,2.8-1.5,3.9l-5.3,5.3C8.3,15.5,7,16,5.6,16z"/>
</svg>
