<?xml version="1.0" encoding="utf-8"?>
<!-- Generator: Adobe Illustrator 25.0.1, SVG Export Plug-In . SVG Version: 6.00 Build 0)  -->
<svg version="1.1" id="Calendar" xmlns="http://www.w3.org/2000/svg" xmlns:xlink="http://www.w3.org/1999/xlink" x="0px" y="0px"
	 viewBox="0 0 16 16" style="enable-background:new 0 0 16 16;" xml:space="preserve">
<style type="text/css">
	.st0{fill:none;}
	.st1{fill-rule:evenodd;clip-rule:evenodd;fill:#353C1D;}
</style>
<rect id="Rectangle_557" class="st0" width="16" height="16"/>
<path id="Path_149" class="st1" d="M2,5v9h12V5H2z M13,2h2c0.5,0,1,0.4,1,0.9c0,0,0,0.1,0,0.1v12c0,0.5-0.4,1-0.9,1c0,0-0.1,0-0.1,0
	H1c-0.5,0-1-0.4-1-0.9c0,0,0-0.1,0-0.1V3c0-0.5,0.4-1,0.9-1C0.9,2,1,2,1,2h2V1c0-0.5,0.4-1,0.9-1C3.9,0,4,0,4,0c0.5,0,1,0.4,1,0.9
	C5,0.9,5,1,5,1v1h6V1c0-0.6,0.4-1,1-1s1,0.4,1,1V2z M12,12h-2v-2h2V12z M9,12H7v-2h2V12z M12,9h-2V7h2V9z M9,9H7V7h2V9z M6,12H4v-2
	h2V12z"/>
</svg>
