<?xml version="1.0" encoding="utf-8"?>
<!-- Generator: Adobe Illustrator 25.0.1, SVG Export Plug-In . SVG Version: 6.00 Build 0)  -->
<svg version="1.1" id="圖層_1" xmlns="http://www.w3.org/2000/svg" xmlns:xlink="http://www.w3.org/1999/xlink" x="0px" y="0px"
	 viewBox="0 0 20 20" style="enable-background:new 0 0 20 20;" xml:space="preserve">
<style type="text/css">
	.st0{fill:#353C1D;}
	.st1{fill-rule:evenodd;clip-rule:evenodd;fill:#353C1D;}
</style>
<g id="Group_968" transform="translate(-336.545 -438.545)">
	<g id="Search" transform="translate(336.545 438.545)">
		<path id="Path_2" class="st0" d="M2.5,8.8c0-3.4,2.7-6.2,6.1-6.3c0,0,0.1,0,0.1,0c3.4,0,6.2,2.7,6.2,6.1c0,0,0,0.1,0,0.1
			c0,3.4-2.7,6.2-6.1,6.2c0,0-0.1,0-0.1,0c-3.4,0-6.2-2.7-6.3-6.1C2.5,8.8,2.5,8.8,2.5,8.8z M17.9,19.6c0.5,0.5,1.3,0.4,1.8-0.1
			c0.4-0.5,0.4-1.2,0-1.7L15.8,14c1.1-1.5,1.8-3.4,1.7-5.2c0-4.8-3.8-8.7-8.6-8.8c0,0-0.1,0-0.1,0C3.9,0,0,3.8,0,8.6
			c0,0,0,0.1,0,0.1c0,4.8,3.8,8.7,8.7,8.7c0,0,0.1,0,0.1,0c1.9,0,3.7-0.6,5.2-1.7L17.9,19.6z"/>
	</g>
	<path id="Path_634" class="st1" d="M348,446.3v1.8h-1.8v1.8h-1.8v-2h-1.8v-1.7h1.8v-1.8h1.8v1.8H348z"/>
</g>
</svg>
