<svg id="Group_273" data-name="Group 273" xmlns="http://www.w3.org/2000/svg" width="32.808" height="31.576" viewBox="0 0 32.808 31.576">
  <g id="Group_270" data-name="Group 270" transform="translate(0 0)">
    <g id="Path_323" data-name="Path 323" transform="translate(10.941 0) rotate(30)" fill="none">
      <path d="M18.937,0l6.312,10.941L18.937,21.883H6.312L0,10.941,6.312,0Z" stroke="none"/>
      <path d="M 6.889881134033203 1.000003814697266 L 1.154485702514648 10.94136333465576 L 6.889892578125 20.88273429870605 L 18.35940742492676 20.88274383544922 L 24.09479522705078 10.94138431549072 L 18.35938835144043 1.00001335144043 L 6.889881134033203 1.000003814697266 M 6.312314987182617 3.814697265625e-06 L 18.93695449829102 1.33514404296875e-05 L 25.2492847442627 10.94138336181641 L 18.93697547912598 21.88274383544922 L 6.312324523925781 21.88273429870605 L -3.814697265625e-06 10.94136428833008 L 6.312314987182617 3.814697265625e-06 Z" stroke="none" fill="#f6f6f7"/>
    </g>
  </g>
  <g id="Facebook" transform="translate(9.541 8.807)">
    <rect id="Rectangle_547" data-name="Rectangle 547" width="13.578" height="13.578" transform="translate(0 0.073)" fill="none"/>
    <path id="Path_1" data-name="Path 1" d="M84.65,13.722V7.471h2.135l.3-2.439H84.65V3.507c0-.686.229-1.22,1.22-1.22h1.3V.076C86.861.076,86.1,0,85.26,0a2.943,2.943,0,0,0-3.126,3.2v1.83H80V7.471h2.135v6.251Z" transform="translate(-76.422)" fill="#f6f6f7" fill-rule="evenodd"/>
  </g>
</svg>
