<?xml version="1.0" encoding="utf-8"?>
<!-- Generator: Adobe Illustrator 25.0.1, SVG Export Plug-In . SVG Version: 6.00 Build 0)  -->
<svg version="1.1" id="Options" xmlns="http://www.w3.org/2000/svg" xmlns:xlink="http://www.w3.org/1999/xlink" x="0px" y="0px"
	 viewBox="0 0 3 15" style="enable-background:new 0 0 3 15;" xml:space="preserve">
<style type="text/css">
	.st0{fill:#353C1D;}
</style>
<path id="Union_1" class="st0" d="M0,13.5C0,12.7,0.7,12,1.5,12S3,12.7,3,13.5S2.3,15,1.5,15S0,14.3,0,13.5z M0,7.5
	C0,6.7,0.7,6,1.5,6S3,6.7,3,7.5S2.3,9,1.5,9S0,8.3,0,7.5z M0,1.5C0,0.7,0.7,0,1.5,0S3,0.7,3,1.5S2.3,3,1.5,3S0,2.3,0,1.5z"/>
</svg>
