<?xml version="1.0" encoding="utf-8"?>
<!-- Generator: Adobe Illustrator 25.0.1, SVG Export Plug-In . SVG Version: 6.00 Build 0)  -->
<svg version="1.1" id="Phone" xmlns="http://www.w3.org/2000/svg" xmlns:xlink="http://www.w3.org/1999/xlink" x="0px" y="0px"
	 viewBox="0 0 16 16" style="enable-background:new 0 0 16 16;" xml:space="preserve">
<style type="text/css">
	.st0{fill:none;}
	.st1{fill:#353C1D;}
</style>
<rect id="Rectangle_320" class="st0" width="16" height="16"/>
<path id="Path_110" class="st1" d="M9.3,11.4L11,9.9c0.1-0.1,0.3-0.2,0.4-0.1l0.3,0.1l4,1.9C16,11.9,16,12,16,12.3
	c0,1-0.4,1.9-1.1,2.6c-0.8,0.8-1.9,1.2-3,1.1c-1.4,0-2.8-0.4-4-1c-1.5-0.8-2.8-1.7-4-2.9c-0.8-1-1.5-2-2.1-3.1c-0.6-1-1-2.1-1.4-3.1
	C0,5,0,4.1,0,3.1C0.1,2.3,0.4,1.6,1,1c0.8-0.6,1.7-1,2.7-1c0.2,0,0.4,0.1,0.6,0.3l2.1,4c0,0.1,0.1,0.2,0.1,0.3c0,0.2,0,0.3-0.1,0.4
	L4.6,6.7c-0.1,0.2-0.1,0.5,0,0.7C5.1,8.2,5.6,9,6.3,9.7C7,10.4,7.7,11,8.6,11.6C8.9,11.7,9.1,11.7,9.3,11.4z"/>
</svg>
