<?xml version="1.0" encoding="utf-8"?>
<!-- Generator: Adobe Illustrator 25.0.1, SVG Export Plug-In . SVG Version: 6.00 Build 0)  -->
<svg version="1.1" id="Search" xmlns="http://www.w3.org/2000/svg" xmlns:xlink="http://www.w3.org/1999/xlink" x="0px" y="0px"
	 viewBox="0 0 20 20" style="enable-background:new 0 0 20 20;" xml:space="preserve">
<style type="text/css">
	.st0{fill:#353C1D;}
</style>
<path id="Path_366" class="st0" d="M2.5,8.8c0-3.4,2.7-6.2,6.1-6.3c0,0,0.1,0,0.1,0c3.4,0,6.2,2.7,6.3,6.1c0,0,0,0.1,0,0.1
	c0,3.4-2.7,6.2-6.1,6.3c0,0-0.1,0-0.1,0c-3.4,0-6.2-2.7-6.3-6.1C2.5,8.8,2.5,8.8,2.5,8.8z M17.9,19.6c0.5,0.5,1.3,0.5,1.8,0
	s0.5-1.3,0-1.8L15.8,14c1.1-1.5,1.8-3.4,1.8-5.3c0-4.8-3.8-8.7-8.6-8.8c0,0-0.1,0-0.1,0C3.9,0,0,3.8,0,8.6c0,0,0,0.1,0,0.1
	c0,4.8,3.8,8.7,8.6,8.8c0,0,0.1,0,0.1,0c1.9,0,3.7-0.6,5.3-1.8L17.9,19.6z"/>
</svg>
